<svg width="512" height="512" viewBox="0 0 512 512" fill="none" xmlns="http://www.w3.org/2000/svg">
<path d="M70.8712 256.391L123.742 284.69L70.8712 312.989L18 284.69L70.8712 256.391Z" fill="#F8F8F8" stroke="black" stroke-width="6.09524"/>
<path d="M18 284.69L70.8712 312.989V369.586L18 341.288V284.69Z" fill="#D4D4D4" stroke="black" stroke-width="6.09524"/>
<path d="M70.8712 312.989L123.742 284.69V341.288L70.8712 369.586V312.989Z" fill="#4548C6" stroke="black" stroke-width="6.09524"/>
<path d="M70.8712 199.793L123.742 228.092L70.8712 256.391L18 228.092L70.8712 199.793Z" fill="#F8F8F8" stroke="black" stroke-width="6.09524"/>
<path d="M18 228.092L70.8712 256.391V312.989L18 284.69V228.092Z" fill="#D4D4D4" stroke="black" stroke-width="6.09524"/>
<path d="M70.8712 256.391L123.742 228.092V284.69L70.8712 312.989V256.391Z" fill="#4548C6" stroke="black" stroke-width="6.09524"/>
<path d="M70.8712 143.195L123.742 171.494L70.8712 199.793L18 171.494L70.8712 143.195Z" fill="#F8F8F8" stroke="black" stroke-width="6.09524"/>
<path d="M18 171.494L70.8712 199.793V256.391L18 228.092V171.494Z" fill="#D4D4D4" stroke="black" stroke-width="6.09524"/>
<path d="M70.8712 199.793L123.742 171.494V228.092L70.8712 256.391V199.793Z" fill="#4548C6" stroke="black" stroke-width="6.09524"/>
<path d="M70.8712 86.5978L123.742 114.897L70.8712 143.195L18 114.897L70.8712 86.5978Z" fill="#F8F8F8" stroke="black" stroke-width="6.09524"/>
<path d="M18 114.897L70.8712 143.195V199.793L18 171.494V114.897Z" fill="#D4D4D4" stroke="black" stroke-width="6.09524"/>
<path d="M70.8712 143.195L123.742 114.897V171.494L70.8712 199.793V143.195Z" fill="#4548C6" stroke="black" stroke-width="6.09524"/>
<path d="M70.8712 30L123.742 58.2989L70.8712 86.5977L18 58.2989L70.8712 30Z" fill="#F8F8F8" stroke="black" stroke-width="6.09524"/>
<path d="M18 58.2989L70.8712 86.5977V143.195L18 114.897V58.2989Z" fill="#D4D4D4" stroke="black" stroke-width="6.09524"/>
<path d="M70.8712 86.5977L123.742 58.2989V114.897L70.8712 143.195V86.5977Z" fill="#4548C6" stroke="black" stroke-width="6.09524"/>
<path d="M123.742 58.2989L176.614 86.5977L123.742 114.897L70.8712 86.5977L123.742 58.2989Z" fill="#F8F8F8" stroke="black" stroke-width="6.09524"/>
<path d="M70.8712 86.5979L123.742 114.897V171.494L70.8712 143.196V86.5979Z" fill="#D4D4D4" stroke="black" stroke-width="6.09524"/>
<path d="M123.742 114.897L176.614 86.5979V143.196L123.742 171.494V114.897Z" fill="#4548C6" stroke="black" stroke-width="6.09524"/>
<path d="M176.614 86.5978L229.485 114.897L176.614 143.195L123.742 114.897L176.614 86.5978Z" fill="#F8F8F8" stroke="black" stroke-width="6.09524"/>
<path d="M123.742 114.897L176.614 143.195V199.793L123.742 171.494V114.897Z" fill="#D4D4D4" stroke="black" stroke-width="6.09524"/>
<path d="M176.614 143.195L229.485 114.897V171.494L176.614 199.793V143.195Z" fill="#4548C6" stroke="black" stroke-width="6.09524"/>
<path d="M176.614 143.195L229.485 171.494L176.614 199.793L123.742 171.494L176.614 143.195Z" fill="#F8F8F8" stroke="black" stroke-width="6.09524"/>
<path d="M123.742 171.494L176.614 199.793V256.391L123.742 228.092V171.494Z" fill="#D4D4D4" stroke="black" stroke-width="6.09524"/>
<path d="M176.614 199.793L229.485 171.494V228.092L176.614 256.391V199.793Z" fill="#4548C6" stroke="black" stroke-width="6.09524"/>
<path d="M123.742 171.494L176.614 199.793L123.742 228.092L70.8712 199.793L123.742 171.494Z" fill="#F8F8F8" stroke="black" stroke-width="6.09524"/>
<path d="M70.8712 199.793L123.742 228.092V284.69L70.8712 256.391V199.793Z" fill="#D4D4D4" stroke="black" stroke-width="6.09524"/>
<path d="M123.742 228.092L176.614 199.793V256.391L123.742 284.69V228.092Z" fill="#4548C6" stroke="black" stroke-width="6.09524"/>
<path d="M123.742 228.092L176.614 256.391L123.742 284.69L70.8712 256.391L123.742 228.092Z" fill="#F8F8F8" stroke="black" stroke-width="6.09524"/>
<path d="M70.8712 256.391L123.742 284.69V341.288L70.8712 312.989V256.391Z" fill="#D4D4D4" stroke="black" stroke-width="6.09524"/>
<path d="M123.742 284.69L176.614 256.391V312.989L123.742 341.288V284.69Z" fill="#4548C6" stroke="black" stroke-width="6.09524"/>
<path d="M176.614 256.391L229.485 284.69L176.614 312.989L123.742 284.69L176.614 256.391Z" fill="#F8F8F8" stroke="black" stroke-width="6.09524"/>
<path d="M123.742 284.69L176.614 312.989V369.586L123.742 341.288V284.69Z" fill="#D4D4D4" stroke="black" stroke-width="6.09524"/>
<path d="M176.614 312.989L229.485 284.69V341.288L176.614 369.586V312.989Z" fill="#4548C6" stroke="black" stroke-width="6.09524"/>
<path d="M335.386 115.115L388.258 143.414L335.386 171.713L282.515 143.414L335.386 115.115Z" fill="#F8F8F8" stroke="black" stroke-width="6.09524"/>
<path d="M282.515 143.414L335.386 171.713V228.31L282.515 200.011V143.414Z" fill="#D4D4D4" stroke="black" stroke-width="6.09524"/>
<path d="M335.386 171.713L388.258 143.414V200.011L335.386 228.31V171.713Z" fill="#0398A3" stroke="black" stroke-width="6.09524"/>
<path d="M388.258 143.414L441.129 171.712L388.258 200.011L335.386 171.712L388.258 143.414Z" fill="#F8F8F8" stroke="black" stroke-width="6.09524"/>
<path d="M335.386 171.712L388.258 200.011V256.609L335.386 228.31V171.712Z" fill="#D4D4D4" stroke="black" stroke-width="6.09524"/>
<path d="M388.258 200.011L441.129 171.712V228.31L388.258 256.609V200.011Z" fill="#0398A3" stroke="black" stroke-width="6.09524"/>
<path d="M441.129 171.712L494 200.011L441.129 228.31L388.258 200.011L441.129 171.712Z" fill="#F8F8F8" stroke="black" stroke-width="6.09524"/>
<path d="M388.258 200.011L441.129 228.31V284.908L388.258 256.609V200.011Z" fill="#D4D4D4" stroke="black" stroke-width="6.09524"/>
<path d="M441.129 228.31L494 200.011V256.609L441.129 284.908V228.31Z" fill="#0398A3" stroke="black" stroke-width="6.09524"/>
<path d="M388.258 200.011L441.129 228.31L388.258 256.609L335.386 228.31L388.258 200.011Z" fill="#F8F8F8" stroke="black" stroke-width="6.09524"/>
<path d="M335.386 228.31L388.258 256.609V313.207L335.386 284.908V228.31Z" fill="#D4D4D4" stroke="black" stroke-width="6.09524"/>
<path d="M388.258 256.609L441.129 228.31V284.908L388.258 313.207V256.609Z" fill="#0398A3" stroke="black" stroke-width="6.09524"/>
<path d="M335.386 228.31L388.258 256.609L335.386 284.908L282.515 256.609L335.386 228.31Z" fill="#F8F8F8" stroke="black" stroke-width="6.09524"/>
<path d="M282.515 256.609L335.386 284.908V341.506L282.515 313.207V256.609Z" fill="#D4D4D4" stroke="black" stroke-width="6.09524"/>
<path d="M335.386 284.908L388.258 256.609V313.207L335.386 341.506V284.908Z" fill="#0398A3" stroke="black" stroke-width="6.09524"/>
<path d="M282.515 256.609L335.386 284.908L282.515 313.207L229.644 284.908L282.515 256.609Z" fill="#F8F8F8" stroke="black" stroke-width="6.09524"/>
<path d="M229.644 284.908L282.515 313.207V369.805L229.644 341.506V284.908Z" fill="#D4D4D4" stroke="black" stroke-width="6.09524"/>
<path d="M282.515 313.207L335.386 284.908V341.506L282.515 369.805V313.207Z" fill="#0398A3" stroke="black" stroke-width="6.09524"/>
<path d="M282.515 313.207L335.386 341.506L282.515 369.804L229.644 341.506L282.515 313.207Z" fill="#F8F8F8" stroke="black" stroke-width="6.09524"/>
<path d="M229.644 341.506L282.515 369.805V426.402L229.644 398.103V341.506Z" fill="#D4D4D4" stroke="black" stroke-width="6.09524"/>
<path d="M282.515 369.805L335.386 341.506V398.103L282.515 426.402V369.805Z" fill="#0398A3" stroke="black" stroke-width="6.09524"/>
<path d="M335.386 341.506L388.258 369.805L335.386 398.103L282.515 369.805L335.386 341.506Z" fill="#F8F8F8" stroke="black" stroke-width="6.09524"/>
<path d="M282.515 369.805L335.386 398.103V454.701L282.515 426.402V369.805Z" fill="#D4D4D4" stroke="black" stroke-width="6.09524"/>
<path d="M335.386 398.103L388.258 369.805V426.402L335.386 454.701V398.103Z" fill="#0398A3" stroke="black" stroke-width="6.09524"/>
<path d="M388.258 369.805L441.129 398.103L388.258 426.402L335.386 398.103L388.258 369.805Z" fill="#F8F8F8" stroke="black" stroke-width="6.09524"/>
<path d="M335.386 398.103L388.258 426.402V483L335.386 454.701V398.103Z" fill="#D4D4D4" stroke="black" stroke-width="6.09524"/>
<path d="M388.258 426.402L441.129 398.103V454.701L388.258 483V426.402Z" fill="#0398A3" stroke="black" stroke-width="6.09524"/>
</svg>
