<svg width="512" height="512" viewBox="0 0 512 512" fill="none" xmlns="http://www.w3.org/2000/svg">
<g clip-path="url(#clip0_1_99)">
<path d="M56.9571 215.446L113.914 242.377L56.9571 269.308L0 242.377L56.9571 215.446Z" fill="#FF2A6D" stroke="black" stroke-width="6.09524"/>
<path d="M0 242.377L56.9571 269.308V323.169L0 296.238V242.377Z" fill="#D4D4D4" stroke="black" stroke-width="6.09524"/>
<path d="M56.9571 269.308L113.914 242.377V296.238L56.9571 323.169V269.308Z" fill="#A3A3A3" stroke="black" stroke-width="6.09524"/>
<path d="M56.9571 161.585L113.914 188.515L56.9571 215.446L0 188.515L56.9571 161.585Z" fill="#FF2A6D" stroke="black" stroke-width="6.09524"/>
<path d="M0 188.515L56.9571 215.446V269.308L0 242.377V188.515Z" fill="#D4D4D4" stroke="black" stroke-width="6.09524"/>
<path d="M56.9571 215.446L113.914 188.515V242.377L56.9571 269.308V215.446Z" fill="#A3A3A3" stroke="black" stroke-width="6.09524"/>
<path d="M56.9571 107.723L113.914 134.654L56.9571 161.585L0 134.654L56.9571 107.723Z" fill="#FF2A6D" stroke="black" stroke-width="6.09524"/>
<path d="M0 134.654L56.9571 161.585V215.446L0 188.515V134.654Z" fill="#D4D4D4" stroke="black" stroke-width="6.09524"/>
<path d="M56.9571 161.585L113.914 134.654V188.515L56.9571 215.446V161.585Z" fill="#A3A3A3" stroke="black" stroke-width="6.09524"/>
<path d="M56.9571 53.8615L113.914 80.7923L56.9571 107.723L0 80.7923L56.9571 53.8615Z" fill="#FF2A6D" stroke="black" stroke-width="6.09524"/>
<path d="M0 80.7922L56.9571 107.723V161.584L0 134.654V80.7922Z" fill="#D4D4D4" stroke="black" stroke-width="6.09524"/>
<path d="M56.9571 107.723L113.914 80.7922V134.654L56.9571 161.584V107.723Z" fill="#A3A3A3" stroke="black" stroke-width="6.09524"/>
<path d="M56.9571 0L113.914 26.9308L56.9571 53.8615L0 26.9308L56.9571 0Z" fill="#FF2A6D" stroke="black" stroke-width="6.09524"/>
<path d="M0 26.9308L56.9571 53.8615V107.723L0 80.7923V26.9308Z" fill="#D4D4D4" stroke="black" stroke-width="6.09524"/>
<path d="M56.9571 53.8615L113.914 26.9308V80.7923L56.9571 107.723V53.8615Z" fill="#A3A3A3" stroke="black" stroke-width="6.09524"/>
<path d="M113.914 26.9308L170.871 53.8615L113.914 80.7923L56.9571 53.8615L113.914 26.9308Z" fill="#FF2A6D" stroke="black" stroke-width="6.09524"/>
<path d="M56.9571 53.8616L113.914 80.7924V134.654L56.9571 107.723V53.8616Z" fill="#D4D4D4" stroke="black" stroke-width="6.09524"/>
<path d="M113.914 80.7924L170.871 53.8616V107.723L113.914 134.654V80.7924Z" fill="#A3A3A3" stroke="black" stroke-width="6.09524"/>
<path d="M170.871 53.8615L227.828 80.7923L170.871 107.723L113.914 80.7923L170.871 53.8615Z" fill="#FF2A6D" stroke="black" stroke-width="6.09524"/>
<path d="M113.914 80.7922L170.871 107.723V161.584L113.914 134.654V80.7922Z" fill="#D4D4D4" stroke="black" stroke-width="6.09524"/>
<path d="M170.871 107.723L227.828 80.7922V134.654L170.871 161.584V107.723Z" fill="#A3A3A3" stroke="black" stroke-width="6.09524"/>
<path d="M170.871 107.723L227.828 134.654L170.871 161.585L113.914 134.654L170.871 107.723Z" fill="#FF2A6D" stroke="black" stroke-width="6.09524"/>
<path d="M113.914 134.654L170.871 161.585V215.446L113.914 188.515V134.654Z" fill="#D4D4D4" stroke="black" stroke-width="6.09524"/>
<path d="M170.871 161.585L227.828 134.654V188.515L170.871 215.446V161.585Z" fill="#A3A3A3" stroke="black" stroke-width="6.09524"/>
<path d="M113.914 134.654L170.871 161.585L113.914 188.515L56.9571 161.585L113.914 134.654Z" fill="#FF2A6D" stroke="black" stroke-width="6.09524"/>
<path d="M56.9571 161.585L113.914 188.515V242.377L56.9571 215.446V161.585Z" fill="#D4D4D4" stroke="black" stroke-width="6.09524"/>
<path d="M113.914 188.515L170.871 161.585V215.446L113.914 242.377V188.515Z" fill="#A3A3A3" stroke="black" stroke-width="6.09524"/>
<path d="M113.914 188.515L170.871 215.446L113.914 242.377L56.9571 215.446L113.914 188.515Z" fill="#FF2A6D" stroke="black" stroke-width="6.09524"/>
<path d="M56.9571 215.446L113.914 242.377V296.238L56.9571 269.308V215.446Z" fill="#D4D4D4" stroke="black" stroke-width="6.09524"/>
<path d="M113.914 242.377L170.871 215.446V269.308L113.914 296.238V242.377Z" fill="#A3A3A3" stroke="black" stroke-width="6.09524"/>
<path d="M170.871 215.446L227.828 242.377L170.871 269.308L113.914 242.377L170.871 215.446Z" fill="#FF2A6D" stroke="black" stroke-width="6.09524"/>
<path d="M113.914 242.377L170.871 269.308V323.169L113.914 296.238V242.377Z" fill="#D4D4D4" stroke="black" stroke-width="6.09524"/>
<path d="M170.871 269.308L227.828 242.377V296.238L170.871 323.169V269.308Z" fill="#A3A3A3" stroke="black" stroke-width="6.09524"/>
<path d="M284.172 108.039L341.129 134.97L284.172 161.9L227.215 134.97L284.172 108.039Z" fill="#FF6B9B" stroke="black" stroke-width="6.09524"/>
<path d="M227.215 134.969L284.172 161.9V215.762L227.215 188.831V134.969Z" fill="#D4D4D4" stroke="black" stroke-width="6.09524"/>
<path d="M284.172 161.9L341.129 134.969V188.831L284.172 215.762V161.9Z" fill="#A3A3A3" stroke="black" stroke-width="6.09524"/>
<path d="M341.129 134.969L398.086 161.9L341.129 188.831L284.172 161.9L341.129 134.969Z" fill="#FF6B9B" stroke="black" stroke-width="6.09524"/>
<path d="M284.172 161.9L341.129 188.831V242.692L284.172 215.762V161.9Z" fill="#D4D4D4" stroke="black" stroke-width="6.09524"/>
<path d="M341.129 188.831L398.086 161.9V215.762L341.129 242.692V188.831Z" fill="#A3A3A3" stroke="black" stroke-width="6.09524"/>
<path d="M398.086 161.9L455.043 188.831L398.086 215.762L341.129 188.831L398.086 161.9Z" fill="#FF6B9B" stroke="black" stroke-width="6.09524"/>
<path d="M341.129 188.831L398.086 215.762V269.623L341.129 242.692V188.831Z" fill="#D4D4D4" stroke="black" stroke-width="6.09524"/>
<path d="M398.086 215.762L455.043 188.831V242.692L398.086 269.623V215.762Z" fill="#A3A3A3" stroke="black" stroke-width="6.09524"/>
<path d="M455.043 188.831L512 215.762L455.043 242.692L398.086 215.762L455.043 188.831Z" fill="#FF6B9B" stroke="black" stroke-width="6.09524"/>
<path d="M398.086 215.762L455.043 242.692V296.554L398.086 269.623V215.762Z" fill="#D4D4D4" stroke="black" stroke-width="6.09524"/>
<path d="M455.043 242.692L512 215.762V269.623L455.043 296.554V242.692Z" fill="#A3A3A3" stroke="black" stroke-width="6.09524"/>
<path d="M398.086 215.762L455.043 242.692L398.086 269.623L341.129 242.692L398.086 215.762Z" fill="#FF6B9B" stroke="black" stroke-width="6.09524"/>
<path d="M341.129 242.692L398.086 269.623V323.485L341.129 296.554V242.692Z" fill="#D4D4D4" stroke="black" stroke-width="6.09524"/>
<path d="M398.086 269.623L455.043 242.692V296.554L398.086 323.485V269.623Z" fill="#A3A3A3" stroke="black" stroke-width="6.09524"/>
<path d="M341.129 242.692L398.086 269.623L341.129 296.554L284.172 269.623L341.129 242.692Z" fill="#FF6B9B" stroke="black" stroke-width="6.09524"/>
<path d="M284.172 269.623L341.129 296.554V350.415L284.172 323.485V269.623Z" fill="#D4D4D4" stroke="black" stroke-width="6.09524"/>
<path d="M341.129 296.554L398.086 269.623V323.485L341.129 350.415V296.554Z" fill="#A3A3A3" stroke="black" stroke-width="6.09524"/>
<path d="M284.172 269.623L341.129 296.554L284.172 323.485L227.215 296.554L284.172 269.623Z" fill="#FF6B9B" stroke="black" stroke-width="6.09524"/>
<path d="M227.215 296.554L284.172 323.485V377.346L227.215 350.415V296.554Z" fill="#D4D4D4" stroke="black" stroke-width="6.09524"/>
<path d="M284.172 323.485L341.129 296.554V350.415L284.172 377.346V323.485Z" fill="#A3A3A3" stroke="black" stroke-width="6.09524"/>
<path d="M284.172 323.485L341.129 350.415L284.172 377.346L227.215 350.415L284.172 323.485Z" fill="#FF6B9B" stroke="black" stroke-width="6.09524"/>
<path d="M227.215 350.415L284.172 377.346V431.208L227.215 404.277V350.415Z" fill="#D4D4D4" stroke="black" stroke-width="6.09524"/>
<path d="M284.172 377.346L341.129 350.415V404.277L284.172 431.208V377.346Z" fill="#A3A3A3" stroke="black" stroke-width="6.09524"/>
<path d="M341.129 350.415L398.086 377.346L341.129 404.277L284.172 377.346L341.129 350.415Z" fill="#FF6B9B" stroke="black" stroke-width="6.09524"/>
<path d="M284.172 377.346L341.129 404.277V458.138L284.172 431.208V377.346Z" fill="#D4D4D4" stroke="black" stroke-width="6.09524"/>
<path d="M341.129 404.277L398.086 377.346V431.208L341.129 458.138V404.277Z" fill="#A3A3A3" stroke="black" stroke-width="6.09524"/>
<path d="M398.086 377.346L455.043 404.277L398.086 431.208L341.129 404.277L398.086 377.346Z" fill="#FF6B9B" stroke="black" stroke-width="6.09524"/>
<path d="M341.129 404.277L398.086 431.208V485.069L341.129 458.138V404.277Z" fill="#D4D4D4" stroke="black" stroke-width="6.09524"/>
<path d="M398.086 431.208L455.043 404.277V458.138L398.086 485.069V431.208Z" fill="#A3A3A3" stroke="black" stroke-width="6.09524"/>
<path d="M455.043 404.277L512 431.208L455.043 458.139L398.086 431.208L455.043 404.277Z" fill="#FF6B9B" stroke="black" stroke-width="6.09524"/>
<path d="M398.086 431.208L455.043 458.138V512L398.086 485.069V431.208Z" fill="#D4D4D4" stroke="black" stroke-width="6.09524"/>
<path d="M455.043 458.138L512 431.208V485.069L455.043 512V458.138Z" fill="#A3A3A3" stroke="black" stroke-width="6.09524"/>
</g>
<defs>
<clipPath id="clip0_1_99">
<rect width="512" height="512" fill="white"/>
</clipPath>
</defs>
</svg>
